<?xml version="1.0" encoding="UTF-8"?>
<svg id="Layer_1" data-name="Layer 1" xmlns="http://www.w3.org/2000/svg" viewBox="0 0 290.87 78.95">
  <defs>
    <style>
      .cls-1 {
        fill: #fff;
      }
    </style>
  </defs>
  <path class="cls-1" d="M37.56,19.08c6.33,0,11.07,1.76,14.23,5.27,3.17,3.52,4.75,8.57,4.75,15.17v35.29h-20.52v-32.81c0-2.33-.6-4.21-1.81-5.63s-2.91-2.13-5.1-2.13c-2.54,0-4.6.83-6.19,2.48-1.58,1.66-2.38,3.69-2.38,6.1v31.98H0V20.33h16.83l1.33,8.25c2.13-2.89,4.92-5.19,8.4-6.92,3.48-1.72,7.15-2.58,11-2.58Z"/>
  <path class="cls-1" d="M63.67,13.94V0h20.52v13.94h-20.52ZM63.67,74.81V20.33h20.52v54.48h-20.52Z"/>
  <path class="cls-1" d="M127.75,20.33v13.92h-11.56v20.75c0,2.47.41,4.28,1.23,5.42.83,1.14,2.34,1.71,4.54,1.71h5.79v12.06c-1.66.56-3.79,1-6.42,1.33-2.61.34-4.88.52-6.79.52-6.06,0-10.72-1.1-14-3.29-3.27-2.21-4.9-5.96-4.9-11.25v-27.25h-7.63v-13.92h8.46l4.44-16.52h15.27v16.52h11.56Z"/>
  <path class="cls-1" d="M164.48,18.98c1.58,0,2.99.2,4.23.58,1.23.38,1.85.6,1.85.67v17.23h-6.6c-4.27,0-7.34,1.1-9.23,3.31-1.89,2.2-2.83,5.46-2.83,9.79v24.25h-20.54V20.33h16.83l1.33,8.25c1.23-3.17,3.19-5.55,5.88-7.17,2.68-1.63,5.71-2.44,9.08-2.44Z"/>
  <path class="cls-1" d="M243.8,54.81c1.33.16,2.52.55,3.56,1.19,1.04.64,1.86,1.56,2.48,2.75.61,1.2.92,2.68.92,4.46,0,1.95-.39,3.74-1.15,5.4-.77,1.66-1.93,3.02-3.48,4.1-1.54,1.07-3.49,1.72-5.83,1.96-.53.04-.96.07-1.29.08h-8.85l3.54-20.06h7.31c.51,0,.98.01,1.42.02.43.02.89.05,1.38.1ZM239.78,70.62c1.26-.11,2.3-.51,3.1-1.21.8-.69,1.4-1.57,1.77-2.63.39-1.05.58-2.2.58-3.44,0-1.51-.3-2.61-.9-3.31-.58-.71-1.42-1.11-2.5-1.21-.33-.04-.64-.06-.92-.06h-2.71l-2.1,11.92h1.77c.39,0,.71,0,.98-.02.28-.01.58-.03.92-.04Z"/>
  <path class="cls-1" d="M258.87,58.76l-.67,3.9h9.27l-.73,4.06h-9.27l-.71,3.96h10.15l-.73,4.06h-15.38l3.54-20.06h15.08l-.71,4.08h-9.85Z"/>
  <path class="cls-1" d="M290.87,54.68l-3.54,20.06h-6.83l-4.79-13.29-2.33,13.29h-5.23l3.54-20.06h6.52l5.02,13.88,2.42-13.88h5.23Z"/>
  <path class="cls-1" d="M253.61,36.4c.47,2.47-1.66,4.6-4.13,4.14-1.38-.26-2.5-1.38-2.77-2.75-.48-2.48,1.66-4.62,4.14-4.14,1.37.26,2.5,1.39,2.75,2.76Z"/>
  <path class="cls-1" d="M241.38,34.34h-19.26c-1.73,0-3.13-1.4-3.13-3.13,0-.86.35-1.65.92-2.21.56-.57,1.35-.92,2.21-.92h7.45c2.48,0,4.49-2.01,4.49-4.49,0-1.24-.5-2.36-1.32-3.18s-1.93-1.31-3.17-1.31h-28.79c-.72,0-1.43.03-2.14.08-15.51,1.09-27.77,14.04-27.77,29.85s13.4,29.92,29.91,29.92c15.41,0,28.1-11.65,29.75-26.61h5.67c1.68,0,3.04-1.36,3.04-3.04,0-.84-.34-1.6-.89-2.15-.55-.55-1.31-.89-2.15-.89h-5.62s-.01-.11-.01-.16h-2.38c-1.73,0-3.13-1.4-3.13-3.13,0-.86.35-1.65.92-2.21.56-.57,1.34-.92,2.21-.92h13.19c1.52,0,2.75-1.23,2.75-2.75s-1.23-2.75-2.75-2.75ZM200.27,60.04c-5.86-.2-10.72-5.04-10.95-10.89-.26-6.49,4.92-11.84,11.36-11.84s11.38,5.09,11.38,11.37-5.31,11.59-11.79,11.36Z"/>
  <path class="cls-1" d="M200.78,19.1c-.72,0-1.43.03-2.14.08v-.08h2.14Z"/>
</svg>